<svg width="100" height="100" viewBox="0 0 100 100" fill="none" xmlns="http://www.w3.org/2000/svg">
  <circle cx="50" cy="50" r="50" fill="url(#paint0_linear)" />
  <path d="M65 30L45 35V70C45 70 45 75 40 75C35 75 35 70 35 70C35 65 40 65 40 65H45V50L30 53V75C30 75 30 80 25 80C20 80 20 75 20 75C20 70 25 70 25 70H30V45L65 35V30Z" fill="white"/>
  <defs>
    <linearGradient id="paint0_linear" x1="0" y1="0" x2="100" y2="100" gradientUnits="userSpaceOnUse">
      <stop stop-color="#30B5FF"/>
      <stop offset="1" stop-color="#7A4BFF"/>
    </linearGradient>
  </defs>
</svg>